<?xml version="1.0" standalone="no"?>
<!DOCTYPE svg PUBLIC "-//W3C//DTD SVG 20010904//EN"
 "http://www.w3.org/TR/2001/REC-SVG-20010904/DTD/svg10.dtd">
<svg version="1.0" xmlns="http://www.w3.org/2000/svg"
 width="411.000000pt" height="77.000000pt" viewBox="0 0 411.000000 77.000000"
 preserveAspectRatio="xMidYMid meet">

<g transform="translate(0.000000,77.000000) scale(0.100000,-0.100000)"
fill="#000000" stroke="none">
<path d="M10 380 l0 -380 2045 0 2045 0 0 380 0 380 -2045 0 -2045 0 0 -380z
m578 3 l-3 -338 -267 -3 -268 -2 0 340 0 340 270 0 270 0 -2 -337z m582 -3 l0
-340 -267 2 -268 3 -3 338 -2 337 270 0 270 0 0 -340z m1730 0 l0 -340 -265 0
-265 0 0 340 0 340 265 0 265 0 0 -340z m580 0 l0 -340 -267 2 -268 3 -3 338
-2 337 270 0 270 0 0 -340z m-2046 34 l10 -39 11 40 c7 22 18 40 25 40 7 0 18
-18 25 -40 l11 -40 10 39 c10 41 34 62 34 29 0 -10 -6 -40 -13 -68 -17 -63
-43 -73 -53 -21 -8 45 -17 46 -29 4 -15 -49 -37 -41 -52 17 -7 28 -13 58 -13
68 0 33 24 12 34 -29z m676 35 c0 -6 -9 -13 -20 -16 -17 -5 -20 -14 -20 -60 0
-72 -24 -68 -28 4 -2 41 -7 52 -22 56 -41 11 -19 27 35 27 33 0 55 -4 55 -11z
m1719 2 c18 -12 -3 -24 -28 -16 -36 11 -32 -14 4 -29 31 -13 36 -20 33 -42 -4
-36 -29 -51 -64 -39 -44 16 -44 38 0 30 28 -6 36 -4 36 8 0 8 -13 17 -29 20
-33 7 -49 40 -31 62 14 16 57 20 79 6z"/>
<path d="M250 391 c0 -41 4 -71 10 -71 6 0 10 18 10 41 0 45 15 45 25 -1 10
-46 24 -45 44 1 l20 43 3 -40 c5 -62 23 -40 23 28 0 50 -3 63 -17 66 -11 2
-20 -8 -28 -35 -18 -57 -26 -59 -42 -11 -8 24 -22 44 -31 46 -15 3 -17 -7 -17
-67z"/>
<path d="M850 450 c0 -5 9 -10 20 -10 16 0 19 -8 22 -55 4 -71 22 -71 26 0 3
47 6 55 23 55 11 0 17 5 14 10 -3 6 -28 10 -56 10 -27 0 -49 -4 -49 -10z"/>
<path d="M2602 393 c3 -66 20 -90 26 -38 3 19 9 25 28 25 13 0 24 5 24 10 0 6
-11 10 -25 10 -18 0 -25 5 -25 20 0 16 7 20 30 20 17 0 30 5 30 10 0 6 -20 10
-45 10 l-46 0 3 -67z"/>
<path d="M3183 453 c-7 -2 -13 -16 -13 -29 0 -19 8 -29 35 -40 41 -17 37 -39
-6 -30 -38 7 -47 -11 -12 -25 69 -26 106 47 37 76 -39 16 -38 41 1 31 13 -3
26 -2 29 3 11 16 -41 27 -71 14z"/>
</g>
</svg>
