<svg xmlns="http://www.w3.org/2000/svg" xmlns:xlink="http://www.w3.org/1999/xlink" xml:space="preserve" version="1.1" style="shape-rendering:geometricPrecision;text-rendering:geometricPrecision;image-rendering:optimizeQuality;" viewBox="0 0 333 416.25" x="0px" y="0px" fill-rule="evenodd" clip-rule="evenodd"><defs><style type="text/css">
   
    .fil0 {fill:black}
   
  </style></defs><g><path class="fil0" d="M167 8c87,0 158,71 158,159 0,87 -71,158 -158,158 -88,0 -159,-71 -159,-158 0,-88 71,-159 159,-159zm39 292c3,3 7,6 11,6 30,-11 55,-31 73,-57 0,-4 -2,-6 -4,-9 -14,9 -28,17 -43,24 -11,13 -23,26 -37,36zm-4 11c-2,-2 -4,-4 -6,-6 -18,-2 -36,-5 -53,-13l-26 8c1,3 2,5 4,8 26,8 55,9 81,3zm-182 -163c-5,34 3,68 21,97l4 1c-2,-12 -3,-25 -5,-38 -6,-18 -10,-37 -12,-56 -3,-1 -6,-2 -8,-4zm11 -6c9,-13 21,-25 34,-36 5,-18 12,-35 19,-52 -1,-2 -4,-5 -6,-6 -29,22 -49,53 -57,89 3,2 7,4 10,5zm122 -108c14,10 27,21 38,34 17,1 34,4 50,9l15 -20c-4,-8 -10,-15 -17,-20 -23,-12 -48,-19 -73,-19 -5,5 -10,10 -13,16zm111 30l-15 20c6,17 10,34 14,51 15,8 29,19 38,35 5,-6 11,-12 13,-19 -2,-24 -11,-47 -25,-67 -7,-8 -16,-14 -25,-20zm-170 -7c-7,16 -13,33 -19,51l31 29c19,-8 38,-14 58,-18 6,-15 12,-30 18,-45 -10,-13 -23,-23 -37,-33 -17,2 -35,8 -51,16zm189 173c7,-15 10,-35 12,-51 -8,-16 -22,-27 -37,-35 -14,6 -28,13 -40,22l-11 58c11,10 22,20 33,30 15,-7 29,-15 43,-24zm-182 -27c11,12 30,26 43,37 18,-4 36,-11 53,-17l10 -58c-11,-14 -25,-27 -40,-36 -20,4 -39,10 -58,17 -4,19 -7,38 -8,57zm38 80c2,-11 1,-24 -1,-35 -15,-12 -32,-25 -46,-38 -13,1 -27,2 -41,2 1,13 3,27 5,40 11,10 42,37 55,39l28 -8z"/></g></svg>