<svg xmlns="http://www.w3.org/2000/svg" xmlns:xlink="http://www.w3.org/1999/xlink" width="228" zoomAndPan="magnify" viewBox="0 0 171 260.250006" height="347" preserveAspectRatio="xMidYMid meet" version="1.0"><defs><clipPath id="a00b060c41"><path d="M 0.246094 0 L 170.753906 0 L 170.753906 259.503906 L 0.246094 259.503906 Z M 0.246094 0 " clip-rule="nonzero"/></clipPath><clipPath id="d48328842a"><path d="M 0.246094 0.140625 L 170.003906 0.140625 L 170.003906 258.898438 L 0.246094 258.898438 Z M 0.246094 0.140625 " clip-rule="nonzero"/></clipPath><clipPath id="27fac8daeb"><path d="M 70.214844 215.230469 L 100.34375 215.230469 L 100.34375 245.359375 L 70.214844 245.359375 Z M 70.214844 215.230469 " clip-rule="nonzero"/></clipPath><clipPath id="9dccc8d508"><path d="M 85.277344 215.230469 C 76.957031 215.230469 70.214844 221.972656 70.214844 230.292969 C 70.214844 238.613281 76.957031 245.359375 85.277344 245.359375 C 93.597656 245.359375 100.34375 238.613281 100.34375 230.292969 C 100.34375 221.972656 93.597656 215.230469 85.277344 215.230469 Z M 85.277344 215.230469 " clip-rule="nonzero"/></clipPath><clipPath id="8bb7a9f70c"><path d="M 121.28125 174.78125 L 151.410156 174.78125 L 151.410156 204.910156 L 121.28125 204.910156 Z M 121.28125 174.78125 " clip-rule="nonzero"/></clipPath><clipPath id="632be3da0e"><path d="M 136.347656 174.78125 C 128.027344 174.78125 121.28125 181.523438 121.28125 189.84375 C 121.28125 198.164062 128.027344 204.910156 136.347656 204.910156 C 144.667969 204.910156 151.410156 198.164062 151.410156 189.84375 C 151.410156 181.523438 144.667969 174.78125 136.347656 174.78125 Z M 136.347656 174.78125 " clip-rule="nonzero"/></clipPath><clipPath id="bafd5b7f29"><path d="M 70.214844 179.863281 L 100.34375 179.863281 L 100.34375 209.996094 L 70.214844 209.996094 Z M 70.214844 179.863281 " clip-rule="nonzero"/></clipPath><clipPath id="690921bfab"><path d="M 85.277344 179.863281 C 76.957031 179.863281 70.214844 186.609375 70.214844 194.929688 C 70.214844 203.25 76.957031 209.996094 85.277344 209.996094 C 93.597656 209.996094 100.34375 203.25 100.34375 194.929688 C 100.34375 186.609375 93.597656 179.863281 85.277344 179.863281 Z M 85.277344 179.863281 " clip-rule="nonzero"/></clipPath><clipPath id="248e86f056"><path d="M 19.265625 174.78125 L 49.394531 174.78125 L 49.394531 204.910156 L 19.265625 204.910156 Z M 19.265625 174.78125 " clip-rule="nonzero"/></clipPath><clipPath id="c056130245"><path d="M 34.332031 174.78125 C 26.011719 174.78125 19.265625 181.523438 19.265625 189.84375 C 19.265625 198.164062 26.011719 204.910156 34.332031 204.910156 C 42.652344 204.910156 49.394531 198.164062 49.394531 189.84375 C 49.394531 181.523438 42.652344 174.78125 34.332031 174.78125 Z M 34.332031 174.78125 " clip-rule="nonzero"/></clipPath><clipPath id="50d3d6a63f"><path d="M 70.214844 109.285156 L 100.34375 109.285156 L 100.34375 139.414062 L 70.214844 139.414062 Z M 70.214844 109.285156 " clip-rule="nonzero"/></clipPath><clipPath id="43ba0277cd"><path d="M 85.277344 109.285156 C 76.957031 109.285156 70.214844 116.03125 70.214844 124.351562 C 70.214844 132.671875 76.957031 139.414062 85.277344 139.414062 C 93.597656 139.414062 100.34375 132.671875 100.34375 124.351562 C 100.34375 116.03125 93.597656 109.285156 85.277344 109.285156 Z M 85.277344 109.285156 " clip-rule="nonzero"/></clipPath><clipPath id="c8f9d3da29"><path d="M 121.28125 99.320312 L 151.410156 99.320312 L 151.410156 129.449219 L 121.28125 129.449219 Z M 121.28125 99.320312 " clip-rule="nonzero"/></clipPath><clipPath id="ac1de0d35d"><path d="M 136.347656 99.320312 C 128.027344 99.320312 121.28125 106.066406 121.28125 114.386719 C 121.28125 122.703125 128.027344 129.449219 136.347656 129.449219 C 144.667969 129.449219 151.410156 122.703125 151.410156 114.386719 C 151.410156 106.066406 144.667969 99.320312 136.347656 99.320312 Z M 136.347656 99.320312 " clip-rule="nonzero"/></clipPath><clipPath id="c3a48694c0"><path d="M 19.265625 99.320312 L 49.394531 99.320312 L 49.394531 129.449219 L 19.265625 129.449219 Z M 19.265625 99.320312 " clip-rule="nonzero"/></clipPath><clipPath id="953d592680"><path d="M 34.332031 99.320312 C 26.011719 99.320312 19.265625 106.066406 19.265625 114.386719 C 19.265625 122.703125 26.011719 129.449219 34.332031 129.449219 C 42.652344 129.449219 49.394531 122.703125 49.394531 114.386719 C 49.394531 106.066406 42.652344 99.320312 34.332031 99.320312 Z M 34.332031 99.320312 " clip-rule="nonzero"/></clipPath><clipPath id="f071cbb5ed"><path d="M 70.214844 25.429688 L 100.34375 25.429688 L 100.34375 55.558594 L 70.214844 55.558594 Z M 70.214844 25.429688 " clip-rule="nonzero"/></clipPath><clipPath id="2fc34cb4bc"><path d="M 85.277344 25.429688 C 76.957031 25.429688 70.214844 32.171875 70.214844 40.492188 C 70.214844 48.8125 76.957031 55.558594 85.277344 55.558594 C 93.597656 55.558594 100.34375 48.8125 100.34375 40.492188 C 100.34375 32.171875 93.597656 25.429688 85.277344 25.429688 Z M 85.277344 25.429688 " clip-rule="nonzero"/></clipPath><clipPath id="a74153ddfa"><path d="M 70.214844 144.652344 L 100.34375 144.652344 L 100.34375 174.78125 L 70.214844 174.78125 Z M 70.214844 144.652344 " clip-rule="nonzero"/></clipPath><clipPath id="2cb0065f79"><path d="M 85.277344 144.652344 C 76.957031 144.652344 70.214844 151.394531 70.214844 159.714844 C 70.214844 168.035156 76.957031 174.78125 85.277344 174.78125 C 93.597656 174.78125 100.34375 168.035156 100.34375 159.714844 C 100.34375 151.394531 93.597656 144.652344 85.277344 144.652344 Z M 85.277344 144.652344 " clip-rule="nonzero"/></clipPath><clipPath id="2746b0236a"><path d="M 70.214844 67.339844 L 100.34375 67.339844 L 100.34375 97.46875 L 70.214844 97.46875 Z M 70.214844 67.339844 " clip-rule="nonzero"/></clipPath><clipPath id="0823ddae4b"><path d="M 85.277344 67.339844 C 76.957031 67.339844 70.214844 74.085938 70.214844 82.402344 C 70.214844 90.722656 76.957031 97.46875 85.277344 97.46875 C 93.597656 97.46875 100.34375 90.722656 100.34375 82.402344 C 100.34375 74.085938 93.597656 67.339844 85.277344 67.339844 Z M 85.277344 67.339844 " clip-rule="nonzero"/></clipPath><clipPath id="3b197a8cb4"><path d="M 19.265625 38.851562 L 49.394531 38.851562 L 49.394531 68.980469 L 19.265625 68.980469 Z M 19.265625 38.851562 " clip-rule="nonzero"/></clipPath><clipPath id="78e8ebf0e9"><path d="M 34.332031 38.851562 C 26.011719 38.851562 19.265625 45.597656 19.265625 53.917969 C 19.265625 62.234375 26.011719 68.980469 34.332031 68.980469 C 42.652344 68.980469 49.394531 62.234375 49.394531 53.917969 C 49.394531 45.597656 42.652344 38.851562 34.332031 38.851562 Z M 34.332031 38.851562 " clip-rule="nonzero"/></clipPath><clipPath id="129b4cc684"><path d="M 121.28125 38.851562 L 151.410156 38.851562 L 151.410156 68.980469 L 121.28125 68.980469 Z M 121.28125 38.851562 " clip-rule="nonzero"/></clipPath><clipPath id="8379c2b4cc"><path d="M 136.347656 38.851562 C 128.027344 38.851562 121.28125 45.597656 121.28125 53.917969 C 121.28125 62.234375 128.027344 68.980469 136.347656 68.980469 C 144.667969 68.980469 151.410156 62.234375 151.410156 53.917969 C 151.410156 45.597656 144.667969 38.851562 136.347656 38.851562 Z M 136.347656 38.851562 " clip-rule="nonzero"/></clipPath></defs><g clip-path="url(#a00b060c41)"><path fill="#ffffff" d="M 0.246094 0 L 170.753906 0 L 170.753906 259.503906 L 0.246094 259.503906 Z M 0.246094 0 " fill-opacity="1" fill-rule="nonzero"/></g><g clip-path="url(#d48328842a)"><path fill="#5ada86" d="M -3.5625 260.644531 L -3.5625 -2.273438 L 172.375 -2.273438 L 172.375 260.644531 Z M -3.5625 260.644531 " fill-opacity="1" fill-rule="nonzero"/><path fill="#000000" d="M 174.03125 -2.273438 L 174.03125 260.644531 C 174.03125 260.867188 173.988281 261.078125 173.902344 261.28125 C 173.820312 261.484375 173.699219 261.660156 173.542969 261.816406 C 173.390625 261.972656 173.210938 262.09375 173.007812 262.175781 C 172.804688 262.261719 172.59375 262.300781 172.375 262.300781 L -3.5625 262.300781 C -3.78125 262.300781 -3.992188 262.261719 -4.195312 262.175781 C -4.398438 262.09375 -4.578125 261.972656 -4.734375 261.816406 C -4.886719 261.660156 -5.007812 261.484375 -5.089844 261.28125 C -5.175781 261.078125 -5.21875 260.867188 -5.21875 260.644531 L -5.21875 -2.273438 C -5.21875 -2.492188 -5.175781 -2.703125 -5.089844 -2.90625 C -5.007812 -3.109375 -4.886719 -3.289062 -4.734375 -3.445312 C -4.578125 -3.601562 -4.398438 -3.71875 -4.195312 -3.804688 C -3.992188 -3.886719 -3.78125 -3.929688 -3.5625 -3.929688 L 172.375 -3.929688 C 172.59375 -3.929688 172.804688 -3.886719 173.007812 -3.804688 C 173.210938 -3.71875 173.390625 -3.601562 173.542969 -3.445312 C 173.699219 -3.289062 173.820312 -3.109375 173.902344 -2.90625 C 173.988281 -2.703125 174.03125 -2.492188 174.03125 -2.273438 Z M 170.71875 258.988281 L 170.71875 -0.617188 L -1.90625 -0.617188 L -1.90625 258.988281 Z M 170.71875 258.988281 " fill-opacity="1" fill-rule="nonzero"/></g><path fill="#fbfff0" d="M 161.371094 16.652344 L 161.371094 241.644531 C 161.371094 241.863281 161.328125 242.074219 161.246094 242.277344 C 161.160156 242.480469 161.039062 242.660156 160.886719 242.816406 C 160.730469 242.96875 160.550781 243.089844 160.347656 243.175781 C 160.144531 243.257812 159.933594 243.300781 159.714844 243.300781 L 9.097656 243.300781 C 8.878906 243.300781 8.667969 243.257812 8.464844 243.175781 C 8.261719 243.089844 8.082031 242.96875 7.925781 242.816406 C 7.773438 242.660156 7.652344 242.480469 7.566406 242.277344 C 7.484375 242.074219 7.441406 241.863281 7.441406 241.644531 L 7.441406 16.652344 C 7.441406 16.433594 7.484375 16.222656 7.566406 16.019531 C 7.652344 15.816406 7.773438 15.636719 7.925781 15.480469 C 8.082031 15.324219 8.261719 15.207031 8.464844 15.121094 C 8.667969 15.039062 8.878906 14.996094 9.097656 14.996094 L 159.714844 14.996094 C 159.933594 14.996094 160.144531 15.039062 160.347656 15.121094 C 160.550781 15.207031 160.730469 15.324219 160.886719 15.480469 C 161.039062 15.636719 161.160156 15.816406 161.246094 16.019531 C 161.328125 16.222656 161.371094 16.433594 161.371094 16.652344 Z M 158.058594 239.988281 L 158.058594 18.308594 L 10.753906 18.308594 L 10.753906 239.988281 Z M 158.058594 239.988281 " fill-opacity="1" fill-rule="nonzero"/><path fill="#fbfff0" d="M 129.488281 207.816406 L 129.488281 241.644531 C 129.488281 241.863281 129.449219 242.074219 129.363281 242.277344 C 129.28125 242.480469 129.160156 242.660156 129.003906 242.816406 C 128.847656 242.96875 128.671875 243.089844 128.46875 243.175781 C 128.265625 243.257812 128.054688 243.300781 127.832031 243.300781 C 127.613281 243.300781 127.402344 243.257812 127.199219 243.175781 C 126.996094 243.089844 126.816406 242.96875 126.660156 242.816406 C 126.507812 242.660156 126.386719 242.480469 126.304688 242.277344 C 126.21875 242.074219 126.175781 241.863281 126.175781 241.644531 L 126.175781 209.472656 L 42.636719 209.472656 L 42.636719 241.644531 C 42.636719 241.863281 42.59375 242.074219 42.511719 242.277344 C 42.425781 242.480469 42.304688 242.660156 42.152344 242.816406 C 41.996094 242.96875 41.816406 243.089844 41.613281 243.175781 C 41.410156 243.257812 41.199219 243.300781 40.980469 243.300781 C 40.761719 243.300781 40.550781 243.257812 40.347656 243.175781 C 40.144531 243.089844 39.964844 242.96875 39.808594 242.816406 C 39.652344 242.660156 39.535156 242.480469 39.449219 242.277344 C 39.367188 242.074219 39.324219 241.863281 39.324219 241.644531 L 39.324219 207.816406 C 39.324219 207.597656 39.367188 207.386719 39.449219 207.183594 C 39.535156 206.980469 39.652344 206.800781 39.808594 206.644531 C 39.964844 206.488281 40.144531 206.371094 40.347656 206.285156 C 40.550781 206.203125 40.761719 206.160156 40.980469 206.160156 L 127.832031 206.160156 C 128.054688 206.160156 128.265625 206.203125 128.46875 206.285156 C 128.671875 206.371094 128.847656 206.488281 129.003906 206.644531 C 129.160156 206.800781 129.28125 206.980469 129.363281 207.183594 C 129.449219 207.386719 129.488281 207.597656 129.488281 207.816406 Z M 129.488281 207.816406 " fill-opacity="1" fill-rule="nonzero"/><path fill="#fbfff0" d="M 100.597656 241.644531 L 100.597656 250.101562 C 100.597656 250.320312 100.554688 250.535156 100.472656 250.734375 C 100.386719 250.9375 100.269531 251.117188 100.113281 251.273438 C 99.957031 251.429688 99.777344 251.546875 99.574219 251.632812 C 99.371094 251.714844 99.160156 251.757812 98.941406 251.757812 L 68.335938 251.757812 C 68.113281 251.757812 67.902344 251.714844 67.699219 251.632812 C 67.496094 251.546875 67.320312 251.429688 67.164062 251.273438 C 67.007812 251.117188 66.886719 250.9375 66.804688 250.734375 C 66.71875 250.535156 66.679688 250.320312 66.679688 250.101562 L 66.679688 241.644531 C 66.679688 241.425781 66.71875 241.210938 66.804688 241.007812 C 66.886719 240.808594 67.007812 240.628906 67.164062 240.472656 C 67.316406 240.316406 67.496094 240.195312 67.699219 240.113281 C 67.902344 240.027344 68.113281 239.988281 68.335938 239.988281 C 68.554688 239.988281 68.765625 240.027344 68.96875 240.113281 C 69.171875 240.195312 69.351562 240.316406 69.503906 240.472656 C 69.660156 240.628906 69.78125 240.808594 69.863281 241.007812 C 69.949219 241.210938 69.992188 241.425781 69.992188 241.644531 L 69.992188 248.445312 L 97.285156 248.445312 L 97.285156 241.644531 C 97.285156 241.425781 97.328125 241.210938 97.410156 241.007812 C 97.496094 240.808594 97.613281 240.628906 97.769531 240.472656 C 97.925781 240.316406 98.105469 240.195312 98.308594 240.113281 C 98.511719 240.027344 98.722656 239.988281 98.941406 239.988281 C 99.160156 239.988281 99.371094 240.027344 99.574219 240.113281 C 99.777344 240.195312 99.957031 240.316406 100.113281 240.472656 C 100.269531 240.628906 100.386719 240.808594 100.472656 241.007812 C 100.554688 241.210938 100.597656 241.425781 100.597656 241.644531 Z M 100.597656 241.644531 " fill-opacity="1" fill-rule="nonzero"/><path fill="#fbfff0" d="M 106.082031 230.082031 L 106.082031 241.644531 C 106.082031 241.863281 106.039062 242.074219 105.953125 242.277344 C 105.871094 242.480469 105.75 242.660156 105.597656 242.816406 C 105.441406 242.96875 105.261719 243.089844 105.058594 243.175781 C 104.855469 243.257812 104.644531 243.300781 104.425781 243.300781 C 104.203125 243.300781 103.992188 243.257812 103.789062 243.175781 C 103.585938 243.089844 103.410156 242.96875 103.253906 242.816406 C 103.097656 242.660156 102.976562 242.480469 102.894531 242.277344 C 102.808594 242.074219 102.769531 241.863281 102.769531 241.644531 L 102.769531 231.742188 L 66.042969 231.742188 L 66.042969 241.644531 C 66.042969 241.863281 66.003906 242.074219 65.917969 242.277344 C 65.832031 242.480469 65.714844 242.660156 65.558594 242.816406 C 65.402344 242.96875 65.222656 243.089844 65.019531 243.175781 C 64.820312 243.257812 64.605469 243.300781 64.386719 243.300781 C 64.167969 243.300781 63.957031 243.257812 63.753906 243.175781 C 63.550781 243.089844 63.371094 242.96875 63.214844 242.816406 C 63.0625 242.660156 62.941406 242.480469 62.855469 242.277344 C 62.773438 242.074219 62.730469 241.863281 62.730469 241.644531 L 62.730469 230.082031 C 62.730469 229.863281 62.773438 229.652344 62.855469 229.449219 C 62.941406 229.246094 63.0625 229.066406 63.214844 228.914062 C 63.371094 228.757812 63.550781 228.636719 63.753906 228.554688 C 63.957031 228.46875 64.167969 228.425781 64.386719 228.425781 L 104.425781 228.425781 C 104.644531 228.425781 104.855469 228.46875 105.058594 228.554688 C 105.261719 228.636719 105.441406 228.757812 105.597656 228.914062 C 105.75 229.066406 105.871094 229.246094 105.953125 229.449219 C 106.039062 229.652344 106.082031 229.863281 106.082031 230.082031 Z M 106.082031 230.082031 " fill-opacity="1" fill-rule="nonzero"/><path fill="#fbfff0" d="M 161.371094 129.148438 C 161.371094 129.367188 161.328125 129.578125 161.246094 129.78125 C 161.160156 129.984375 161.039062 130.164062 160.886719 130.320312 C 160.730469 130.472656 160.550781 130.59375 160.347656 130.679688 C 160.144531 130.761719 159.933594 130.804688 159.714844 130.804688 L 9.097656 130.804688 C 8.878906 130.804688 8.667969 130.761719 8.464844 130.679688 C 8.261719 130.59375 8.082031 130.472656 7.925781 130.320312 C 7.773438 130.164062 7.652344 129.984375 7.566406 129.78125 C 7.484375 129.578125 7.441406 129.367188 7.441406 129.148438 C 7.441406 128.929688 7.484375 128.714844 7.566406 128.515625 C 7.652344 128.3125 7.773438 128.132812 7.925781 127.976562 C 8.082031 127.820312 8.261719 127.703125 8.464844 127.617188 C 8.667969 127.535156 8.878906 127.492188 9.097656 127.492188 L 159.714844 127.492188 C 159.933594 127.492188 160.144531 127.535156 160.347656 127.617188 C 160.550781 127.703125 160.730469 127.820312 160.886719 127.976562 C 161.039062 128.132812 161.160156 128.3125 161.246094 128.515625 C 161.328125 128.714844 161.371094 128.929688 161.371094 129.148438 Z M 161.371094 129.148438 " fill-opacity="1" fill-rule="nonzero"/><path fill="#fbfff0" d="M 105.09375 129.59375 C 105.09375 130.273438 105.0625 130.949219 104.996094 131.621094 C 104.929688 132.296875 104.828125 132.964844 104.695312 133.632812 C 104.5625 134.296875 104.398438 134.953125 104.203125 135.601562 C 104.007812 136.25 103.777344 136.886719 103.519531 137.511719 C 103.257812 138.136719 102.96875 138.75 102.652344 139.347656 C 102.332031 139.945312 101.984375 140.523438 101.605469 141.089844 C 101.230469 141.652344 100.828125 142.195312 100.398438 142.71875 C 99.96875 143.242188 99.511719 143.746094 99.035156 144.222656 C 98.554688 144.703125 98.054688 145.15625 97.53125 145.585938 C 97.007812 146.015625 96.464844 146.417969 95.898438 146.796875 C 95.335938 147.171875 94.753906 147.519531 94.160156 147.839844 C 93.5625 148.160156 92.949219 148.449219 92.324219 148.707031 C 91.695312 148.96875 91.058594 149.195312 90.410156 149.390625 C 89.761719 149.589844 89.105469 149.753906 88.441406 149.886719 C 87.777344 150.015625 87.109375 150.117188 86.433594 150.183594 C 85.757812 150.25 85.082031 150.28125 84.40625 150.28125 C 83.730469 150.28125 83.050781 150.25 82.378906 150.183594 C 81.703125 150.117188 81.035156 150.015625 80.371094 149.886719 C 79.707031 149.753906 79.050781 149.589844 78.402344 149.390625 C 77.753906 149.195312 77.113281 148.96875 76.488281 148.707031 C 75.863281 148.449219 75.25 148.160156 74.652344 147.839844 C 74.054688 147.519531 73.476562 147.171875 72.914062 146.796875 C 72.347656 146.417969 71.804688 146.015625 71.28125 145.585938 C 70.757812 145.15625 70.257812 144.703125 69.777344 144.222656 C 69.296875 143.746094 68.84375 143.242188 68.414062 142.71875 C 67.984375 142.195312 67.582031 141.652344 67.203125 141.089844 C 66.828125 140.523438 66.480469 139.945312 66.160156 139.347656 C 65.839844 138.75 65.550781 138.136719 65.292969 137.511719 C 65.035156 136.886719 64.804688 136.25 64.609375 135.601562 C 64.414062 134.953125 64.25 134.296875 64.117188 133.632812 C 63.984375 132.964844 63.882812 132.296875 63.816406 131.621094 C 63.75 130.949219 63.71875 130.273438 63.71875 129.59375 C 63.71875 128.917969 63.75 128.242188 63.816406 127.566406 C 63.882812 126.894531 63.984375 126.222656 64.117188 125.558594 C 64.25 124.894531 64.414062 124.238281 64.609375 123.589844 C 64.804688 122.941406 65.035156 122.304688 65.292969 121.679688 C 65.550781 121.050781 65.839844 120.441406 66.160156 119.84375 C 66.480469 119.246094 66.828125 118.664062 67.203125 118.101562 C 67.582031 117.539062 67.984375 116.996094 68.414062 116.472656 C 68.84375 115.945312 69.296875 115.445312 69.777344 114.964844 C 70.257812 114.488281 70.757812 114.03125 71.28125 113.601562 C 71.804688 113.171875 72.347656 112.769531 72.914062 112.394531 C 73.476562 112.015625 74.054688 111.667969 74.652344 111.351562 C 75.25 111.03125 75.863281 110.742188 76.488281 110.480469 C 77.113281 110.222656 77.753906 109.996094 78.402344 109.796875 C 79.050781 109.601562 79.707031 109.4375 80.371094 109.304688 C 81.035156 109.171875 81.703125 109.074219 82.378906 109.007812 C 83.050781 108.941406 83.730469 108.90625 84.40625 108.90625 C 85.082031 108.90625 85.757812 108.941406 86.433594 109.007812 C 87.105469 109.074219 87.777344 109.175781 88.441406 109.308594 C 89.105469 109.441406 89.761719 109.605469 90.410156 109.804688 C 91.058594 110 91.695312 110.230469 92.320312 110.488281 C 92.945312 110.746094 93.554688 111.039062 94.152344 111.355469 C 94.75 111.675781 95.332031 112.023438 95.894531 112.402344 C 96.457031 112.777344 97 113.179688 97.523438 113.609375 C 98.046875 114.039062 98.546875 114.496094 99.027344 114.972656 C 99.507812 115.453125 99.960938 115.953125 100.390625 116.476562 C 100.820312 117 101.222656 117.542969 101.601562 118.105469 C 101.976562 118.671875 102.324219 119.25 102.644531 119.847656 C 102.964844 120.445312 103.253906 121.054688 103.511719 121.683594 C 103.773438 122.308594 104 122.945312 104.199219 123.59375 C 104.394531 124.242188 104.558594 124.894531 104.691406 125.5625 C 104.824219 126.226562 104.925781 126.894531 104.992188 127.566406 C 105.058594 128.242188 105.09375 128.917969 105.09375 129.59375 Z M 67.03125 129.59375 C 67.03125 130.164062 67.058594 130.730469 67.113281 131.296875 C 67.171875 131.863281 67.253906 132.425781 67.363281 132.984375 C 67.476562 133.542969 67.613281 134.09375 67.78125 134.636719 C 67.945312 135.183594 68.136719 135.71875 68.355469 136.242188 C 68.570312 136.769531 68.816406 137.285156 69.082031 137.785156 C 69.351562 138.289062 69.644531 138.773438 69.960938 139.246094 C 70.277344 139.722656 70.613281 140.175781 70.976562 140.617188 C 71.335938 141.058594 71.71875 141.476562 72.121094 141.878906 C 72.523438 142.28125 72.945312 142.664062 73.382812 143.027344 C 73.824219 143.386719 74.28125 143.726562 74.753906 144.042969 C 75.226562 144.359375 75.714844 144.648438 76.214844 144.917969 C 76.71875 145.1875 77.230469 145.429688 77.757812 145.648438 C 78.28125 145.863281 78.816406 146.054688 79.363281 146.222656 C 79.90625 146.386719 80.457031 146.523438 81.015625 146.636719 C 81.574219 146.746094 82.136719 146.832031 82.703125 146.886719 C 83.269531 146.941406 83.835938 146.96875 84.40625 146.96875 C 84.976562 146.96875 85.542969 146.941406 86.109375 146.886719 C 86.675781 146.832031 87.238281 146.746094 87.796875 146.636719 C 88.355469 146.523438 88.90625 146.386719 89.449219 146.222656 C 89.996094 146.054688 90.53125 145.863281 91.054688 145.648438 C 91.582031 145.429688 92.09375 145.1875 92.597656 144.917969 C 93.097656 144.648438 93.585938 144.359375 94.058594 144.042969 C 94.53125 143.726562 94.988281 143.386719 95.429688 143.027344 C 95.867188 142.664062 96.289062 142.28125 96.691406 141.878906 C 97.09375 141.476562 97.476562 141.058594 97.835938 140.617188 C 98.199219 140.175781 98.535156 139.722656 98.851562 139.246094 C 99.167969 138.773438 99.460938 138.289062 99.730469 137.785156 C 99.996094 137.285156 100.242188 136.769531 100.457031 136.242188 C 100.675781 135.71875 100.867188 135.183594 101.03125 134.636719 C 101.199219 134.09375 101.335938 133.542969 101.445312 132.984375 C 101.558594 132.425781 101.640625 131.863281 101.699219 131.296875 C 101.753906 130.730469 101.78125 130.164062 101.78125 129.59375 C 101.78125 129.027344 101.753906 128.457031 101.699219 127.890625 C 101.640625 127.324219 101.558594 126.761719 101.445312 126.207031 C 101.335938 125.648438 101.199219 125.097656 101.03125 124.550781 C 100.867188 124.007812 100.675781 123.472656 100.457031 122.945312 C 100.242188 122.421875 99.996094 121.90625 99.730469 121.40625 C 99.460938 120.902344 99.167969 120.414062 98.851562 119.941406 C 98.535156 119.46875 98.199219 119.011719 97.835938 118.574219 C 97.476562 118.132812 97.09375 117.710938 96.691406 117.308594 C 96.289062 116.90625 95.867188 116.523438 95.429688 116.164062 C 94.988281 115.804688 94.53125 115.464844 94.058594 115.148438 C 93.585938 114.832031 93.097656 114.539062 92.597656 114.273438 C 92.09375 114.003906 91.582031 113.761719 91.054688 113.542969 C 90.53125 113.324219 89.996094 113.132812 89.449219 112.96875 C 88.90625 112.804688 88.355469 112.664062 87.796875 112.554688 C 87.238281 112.441406 86.675781 112.359375 86.109375 112.304688 C 85.542969 112.246094 84.976562 112.21875 84.40625 112.21875 C 83.835938 112.222656 83.269531 112.25 82.703125 112.304688 C 82.136719 112.363281 81.574219 112.445312 81.019531 112.558594 C 80.460938 112.667969 79.910156 112.808594 79.363281 112.972656 C 78.820312 113.136719 78.285156 113.328125 77.761719 113.546875 C 77.234375 113.765625 76.722656 114.007812 76.21875 114.277344 C 75.71875 114.546875 75.230469 114.839844 74.757812 115.15625 C 74.285156 115.46875 73.828125 115.808594 73.390625 116.171875 C 72.949219 116.53125 72.527344 116.914062 72.125 117.316406 C 71.722656 117.71875 71.34375 118.136719 70.980469 118.578125 C 70.621094 119.015625 70.28125 119.472656 69.964844 119.945312 C 69.648438 120.417969 69.355469 120.90625 69.089844 121.410156 C 68.820312 121.910156 68.578125 122.421875 68.359375 122.949219 C 68.140625 123.472656 67.949219 124.007812 67.785156 124.554688 C 67.617188 125.097656 67.480469 125.648438 67.367188 126.207031 C 67.257812 126.765625 67.171875 127.328125 67.117188 127.890625 C 67.058594 128.457031 67.03125 129.027344 67.03125 129.59375 Z M 67.03125 129.59375 " fill-opacity="1" fill-rule="nonzero"/><path fill="#fbfff0" d="M 129.488281 16.652344 L 129.488281 52.234375 C 129.488281 52.453125 129.449219 52.664062 129.363281 52.867188 C 129.28125 53.070312 129.160156 53.25 129.003906 53.402344 C 128.847656 53.558594 128.671875 53.679688 128.46875 53.761719 C 128.265625 53.847656 128.054688 53.890625 127.832031 53.890625 L 41.691406 53.890625 C 41.472656 53.890625 41.261719 53.847656 41.058594 53.761719 C 40.855469 53.679688 40.675781 53.558594 40.519531 53.402344 C 40.363281 53.25 40.246094 53.070312 40.160156 52.867188 C 40.078125 52.664062 40.035156 52.453125 40.035156 52.234375 L 40.035156 16.652344 C 40.035156 16.433594 40.078125 16.222656 40.160156 16.019531 C 40.246094 15.816406 40.363281 15.636719 40.519531 15.480469 C 40.675781 15.324219 40.855469 15.207031 41.058594 15.121094 C 41.261719 15.039062 41.472656 14.996094 41.691406 14.996094 C 41.910156 14.996094 42.121094 15.039062 42.324219 15.121094 C 42.527344 15.207031 42.707031 15.324219 42.863281 15.480469 C 43.019531 15.636719 43.136719 15.816406 43.222656 16.019531 C 43.304688 16.222656 43.347656 16.433594 43.347656 16.652344 L 43.347656 50.578125 L 126.175781 50.578125 L 126.175781 16.652344 C 126.175781 16.433594 126.21875 16.222656 126.304688 16.019531 C 126.386719 15.816406 126.507812 15.636719 126.660156 15.480469 C 126.816406 15.324219 126.996094 15.207031 127.199219 15.121094 C 127.402344 15.039062 127.613281 14.996094 127.832031 14.996094 C 128.054688 14.996094 128.265625 15.039062 128.46875 15.121094 C 128.671875 15.207031 128.847656 15.324219 129.003906 15.480469 C 129.160156 15.636719 129.28125 15.816406 129.363281 16.019531 C 129.449219 16.222656 129.488281 16.433594 129.488281 16.652344 Z M 129.488281 16.652344 " fill-opacity="1" fill-rule="nonzero"/><path fill="#fbfff0" d="M 98.820312 8.214844 L 98.820312 16.652344 C 98.820312 16.871094 98.777344 17.082031 98.691406 17.285156 C 98.609375 17.488281 98.488281 17.667969 98.335938 17.824219 C 98.179688 17.976562 98 18.097656 97.796875 18.183594 C 97.59375 18.265625 97.382812 18.308594 97.164062 18.308594 C 96.941406 18.308594 96.730469 18.265625 96.527344 18.183594 C 96.324219 18.097656 96.148438 17.976562 95.992188 17.824219 C 95.835938 17.667969 95.714844 17.488281 95.632812 17.285156 C 95.546875 17.082031 95.507812 16.871094 95.507812 16.652344 L 95.507812 9.871094 L 73.585938 9.871094 L 73.585938 16.652344 C 73.585938 16.871094 73.542969 17.082031 73.460938 17.285156 C 73.375 17.488281 73.257812 17.667969 73.101562 17.824219 C 72.945312 17.976562 72.765625 18.097656 72.5625 18.183594 C 72.359375 18.265625 72.148438 18.308594 71.929688 18.308594 C 71.710938 18.308594 71.5 18.265625 71.296875 18.183594 C 71.09375 18.097656 70.914062 17.976562 70.757812 17.824219 C 70.601562 17.667969 70.484375 17.488281 70.398438 17.285156 C 70.316406 17.082031 70.273438 16.871094 70.273438 16.652344 L 70.273438 8.214844 C 70.273438 7.996094 70.316406 7.785156 70.398438 7.582031 C 70.484375 7.378906 70.601562 7.199219 70.757812 7.042969 C 70.914062 6.886719 71.09375 6.769531 71.296875 6.683594 C 71.5 6.601562 71.710938 6.558594 71.929688 6.558594 L 97.164062 6.558594 C 97.382812 6.558594 97.59375 6.601562 97.796875 6.683594 C 98 6.769531 98.179688 6.886719 98.335938 7.042969 C 98.488281 7.199219 98.609375 7.378906 98.691406 7.582031 C 98.777344 7.785156 98.820312 7.996094 98.820312 8.214844 Z M 98.820312 8.214844 " fill-opacity="1" fill-rule="nonzero"/><path fill="#fbfff0" d="M 106.582031 16.652344 L 106.582031 28.953125 C 106.582031 29.171875 106.539062 29.382812 106.453125 29.585938 C 106.371094 29.789062 106.25 29.96875 106.09375 30.125 C 105.941406 30.277344 105.761719 30.398438 105.558594 30.484375 C 105.355469 30.566406 105.144531 30.609375 104.921875 30.609375 L 64.316406 30.609375 C 64.097656 30.609375 63.886719 30.566406 63.683594 30.484375 C 63.480469 30.398438 63.300781 30.277344 63.144531 30.125 C 62.992188 29.96875 62.871094 29.789062 62.785156 29.585938 C 62.703125 29.382812 62.660156 29.171875 62.660156 28.953125 L 62.660156 16.652344 C 62.660156 16.433594 62.703125 16.222656 62.785156 16.019531 C 62.871094 15.816406 62.992188 15.636719 63.144531 15.480469 C 63.300781 15.324219 63.480469 15.207031 63.683594 15.121094 C 63.886719 15.039062 64.097656 14.996094 64.316406 14.996094 C 64.535156 14.996094 64.746094 15.039062 64.949219 15.121094 C 65.152344 15.207031 65.332031 15.324219 65.488281 15.480469 C 65.644531 15.636719 65.761719 15.816406 65.847656 16.019531 C 65.929688 16.222656 65.972656 16.433594 65.972656 16.652344 L 65.972656 27.296875 L 103.265625 27.296875 L 103.265625 16.652344 C 103.265625 16.433594 103.308594 16.222656 103.394531 16.019531 C 103.476562 15.816406 103.597656 15.636719 103.753906 15.480469 C 103.90625 15.324219 104.085938 15.207031 104.289062 15.121094 C 104.492188 15.039062 104.703125 14.996094 104.921875 14.996094 C 105.144531 14.996094 105.355469 15.039062 105.558594 15.121094 C 105.761719 15.207031 105.941406 15.324219 106.09375 15.480469 C 106.25 15.636719 106.371094 15.816406 106.453125 16.019531 C 106.539062 16.222656 106.582031 16.433594 106.582031 16.652344 Z M 106.582031 16.652344 " fill-opacity="1" fill-rule="nonzero"/><path fill="#fbfff0" d="M 100.597656 53.011719 C 100.597656 53.363281 100.496094 53.679688 100.292969 53.964844 C 96.980469 58.660156 91.390625 61.246094 84.546875 61.246094 C 77.589844 61.246094 71.921875 58.519531 68.578125 53.570312 C 68.453125 53.386719 68.367188 53.1875 68.320312 52.972656 C 68.273438 52.757812 68.273438 52.539062 68.3125 52.324219 C 68.355469 52.105469 68.4375 51.90625 68.558594 51.71875 C 68.679688 51.535156 68.832031 51.382812 69.015625 51.257812 C 69.199219 51.132812 69.398438 51.050781 69.613281 51.007812 C 69.832031 50.964844 70.046875 50.960938 70.265625 51.003906 C 70.480469 51.050781 70.679688 51.132812 70.863281 51.253906 C 71.046875 51.378906 71.199219 51.53125 71.324219 51.714844 C 74.03125 55.726562 78.726562 57.933594 84.546875 57.933594 C 88.601562 57.933594 94.160156 56.914062 97.589844 52.054688 C 97.796875 51.761719 98.070312 51.554688 98.414062 51.441406 C 98.753906 51.324219 99.097656 51.320312 99.441406 51.429688 C 99.789062 51.539062 100.066406 51.742188 100.277344 52.03125 C 100.492188 52.324219 100.597656 52.648438 100.597656 53.011719 Z M 100.597656 53.011719 " fill-opacity="1" fill-rule="nonzero"/><path fill="#fbfff0" d="M 100.558594 206.707031 C 100.558594 207.070312 100.453125 207.394531 100.238281 207.6875 C 100.027344 207.976562 99.746094 208.179688 99.402344 208.289062 C 99.058594 208.398438 98.714844 208.394531 98.375 208.277344 C 98.03125 208.164062 97.757812 207.957031 97.546875 207.664062 C 94.125 202.804688 88.566406 201.785156 84.507812 201.785156 C 78.6875 201.785156 73.992188 203.992188 71.28125 208.003906 C 71.160156 208.183594 71.007812 208.335938 70.824219 208.457031 C 70.640625 208.578125 70.441406 208.660156 70.226562 208.699219 C 70.007812 208.742188 69.792969 208.742188 69.578125 208.695312 C 69.363281 208.652344 69.164062 208.570312 68.984375 208.445312 C 68.800781 208.324219 68.648438 208.171875 68.527344 207.988281 C 68.40625 207.804688 68.328125 207.605469 68.285156 207.390625 C 68.242188 207.171875 68.242188 206.957031 68.289062 206.742188 C 68.332031 206.527344 68.414062 206.328125 68.539062 206.148438 C 71.882812 201.195312 77.554688 198.46875 84.507812 198.46875 C 91.351562 198.46875 96.945312 201.058594 100.257812 205.757812 C 100.457031 206.042969 100.558594 206.359375 100.558594 206.707031 Z M 100.558594 206.707031 " fill-opacity="1" fill-rule="nonzero"/><g clip-path="url(#27fac8daeb)"><g clip-path="url(#9dccc8d508)"><path fill="#f7f7f7" d="M 70.214844 215.230469 L 100.34375 215.230469 L 100.34375 245.359375 L 70.214844 245.359375 Z M 70.214844 215.230469 " fill-opacity="1" fill-rule="nonzero"/></g></g><g clip-path="url(#8bb7a9f70c)"><g clip-path="url(#632be3da0e)"><path fill="#f7f7f7" d="M 121.28125 174.78125 L 151.410156 174.78125 L 151.410156 204.910156 L 121.28125 204.910156 Z M 121.28125 174.78125 " fill-opacity="1" fill-rule="nonzero"/></g></g><g clip-path="url(#bafd5b7f29)"><g clip-path="url(#690921bfab)"><path fill="#f7f7f7" d="M 70.214844 179.863281 L 100.34375 179.863281 L 100.34375 209.996094 L 70.214844 209.996094 Z M 70.214844 179.863281 " fill-opacity="1" fill-rule="nonzero"/></g></g><g clip-path="url(#248e86f056)"><g clip-path="url(#c056130245)"><path fill="#f7f7f7" d="M 19.265625 174.78125 L 49.394531 174.78125 L 49.394531 204.910156 L 19.265625 204.910156 Z M 19.265625 174.78125 " fill-opacity="1" fill-rule="nonzero"/></g></g><g clip-path="url(#50d3d6a63f)"><g clip-path="url(#43ba0277cd)"><path fill="#f7f7f7" d="M 70.214844 109.285156 L 100.34375 109.285156 L 100.34375 139.414062 L 70.214844 139.414062 Z M 70.214844 109.285156 " fill-opacity="1" fill-rule="nonzero"/></g></g><g clip-path="url(#c8f9d3da29)"><g clip-path="url(#ac1de0d35d)"><path fill="#f7f7f7" d="M 121.28125 99.320312 L 151.410156 99.320312 L 151.410156 129.449219 L 121.28125 129.449219 Z M 121.28125 99.320312 " fill-opacity="1" fill-rule="nonzero"/></g></g><g clip-path="url(#c3a48694c0)"><g clip-path="url(#953d592680)"><path fill="#f7f7f7" d="M 19.265625 99.320312 L 49.394531 99.320312 L 49.394531 129.449219 L 19.265625 129.449219 Z M 19.265625 99.320312 " fill-opacity="1" fill-rule="nonzero"/></g></g><g clip-path="url(#f071cbb5ed)"><g clip-path="url(#2fc34cb4bc)"><path fill="#006135" d="M 70.214844 25.429688 L 100.34375 25.429688 L 100.34375 55.558594 L 70.214844 55.558594 Z M 70.214844 25.429688 " fill-opacity="1" fill-rule="nonzero"/></g></g><g clip-path="url(#a74153ddfa)"><g clip-path="url(#2cb0065f79)"><path fill="#f7f7f7" d="M 70.214844 144.652344 L 100.34375 144.652344 L 100.34375 174.78125 L 70.214844 174.78125 Z M 70.214844 144.652344 " fill-opacity="1" fill-rule="nonzero"/></g></g><g clip-path="url(#2746b0236a)"><g clip-path="url(#0823ddae4b)"><path fill="#f7f7f7" d="M 70.214844 67.339844 L 100.34375 67.339844 L 100.34375 97.46875 L 70.214844 97.46875 Z M 70.214844 67.339844 " fill-opacity="1" fill-rule="nonzero"/></g></g><g clip-path="url(#3b197a8cb4)"><g clip-path="url(#78e8ebf0e9)"><path fill="#f7f7f7" d="M 19.265625 38.851562 L 49.394531 38.851562 L 49.394531 68.980469 L 19.265625 68.980469 Z M 19.265625 38.851562 " fill-opacity="1" fill-rule="nonzero"/></g></g><g clip-path="url(#129b4cc684)"><g clip-path="url(#8379c2b4cc)"><path fill="#f7f7f7" d="M 121.28125 38.851562 L 151.410156 38.851562 L 151.410156 68.980469 L 121.28125 68.980469 Z M 121.28125 38.851562 " fill-opacity="1" fill-rule="nonzero"/></g></g></svg>