<?xml version="1.0" standalone="no"?>
<!DOCTYPE svg PUBLIC "-//W3C//DTD SVG 20010904//EN"
 "http://www.w3.org/TR/2001/REC-SVG-20010904/DTD/svg10.dtd">
<svg version="1.0" xmlns="http://www.w3.org/2000/svg"
 width="241.000000pt" height="241.000000pt" viewBox="0 0 241.000000 241.000000"
 preserveAspectRatio="xMidYMid meet">

<g transform="translate(0.000000,241.000000) scale(0.100000,-0.100000)"
fill="#000000" stroke="none">
<path d="M1235 1696 c-5 -2 -34 -11 -62 -20 -29 -9 -237 -113 -463 -232 l-410
-216 0 -127 0 -127 111 -120 c61 -65 121 -129 133 -142 l23 -23 234 130 234
129 100 -104 c124 -129 175 -156 307 -162 68 -3 101 0 155 16 201 62 345 252
330 438 -8 111 -37 153 -228 336 -201 194 -242 218 -372 224 -45 2 -86 2 -92
0z m226 -59 c51 -25 275 -230 232 -212 -10 4 -52 10 -93 12 -128 9 -161 -5
-614 -252 l-411 -225 -117 122 c-65 68 -118 125 -118 128 0 11 812 431 861
445 82 23 194 15 260 -18z m273 -266 c233 -115 214 -430 -36 -592 -118 -76
-286 -91 -395 -36 -100 51 -154 127 -169 235 -3 28 -9 52 -11 52 -3 0 -118
-63 -257 -139 -138 -77 -259 -143 -269 -147 -16 -6 -18 1 -15 91 l3 97 300
165 c582 319 573 315 707 310 62 -3 89 -10 142 -36z m-1314 -303 c0 -9 -60
-48 -72 -48 -5 0 -8 30 -8 67 l0 67 40 -39 c22 -21 40 -43 40 -47z m120 -210
l0 -88 -95 102 c-52 55 -95 104 -95 108 0 4 21 18 48 33 l47 26 48 -47 47 -46
0 -88z m571 82 l7 -33 -25 26 c-14 14 -22 30 -18 36 12 20 29 6 36 -29z"/>
<path d="M1093 1584 c-24 -14 -43 -30 -43 -36 0 -6 38 -49 84 -97 l85 -86 55
28 c31 15 56 33 56 40 0 18 -162 177 -180 177 -8 0 -34 -12 -57 -26z m132 -74
c38 -38 67 -71 64 -73 -2 -2 -17 -11 -33 -21 -28 -18 -28 -18 -58 11 -16 15
-48 49 -69 75 l-40 47 28 15 c15 8 30 15 33 16 3 0 37 -31 75 -70z"/>
</g>
</svg>
