<svg xmlns="http://www.w3.org/2000/svg" xmlns:xlink="http://www.w3.org/1999/xlink" version="1.1" x="0px" y="0px" viewBox="0 0 100 125" style="enable-background:new 0 0 100 100;" xml:space="preserve"><path d="M94.994278,47.6734734c-0.0028992-0.1184731-0.0257339-0.2374191-0.0826416-0.3502998  c-0.0052567-0.0103722-0.0150223-0.0163002-0.0206146-0.0264015c-0.0152206-0.0276146-0.0383224-0.0467453-0.0566406-0.0724716  c-0.0621643-0.0872879-0.1349106-0.1586151-0.2215881-0.2143173c-0.0171127-0.0111122-0.0247192-0.0314522-0.0427704-0.0413513  c-0.303894-0.1664963-30.5434875-16.741106-40.6032372-22.4396534c-4.3180962-2.4462376-8.6873779-3.68606-12.9871521-3.68606  c-5.1888275,0-10.3356247,1.7242203-14.8843346,4.9867687c-2.9791298,2.1358776-5.1527252,3.6779766-7.3430233,5.2313919  l-3.4495192,2.4500103C7.7064872,38.9170609,5,47.8738441,5,54.4539032c0,8.7543907,4.5815773,16.4537811,11.4687595,20.842392  c0.0585976,0.0654678,0.1208305,0.1290436,0.201519,0.1747742c0.221859,0.125618,0.4443245,0.2343903,0.6664524,0.3536682  c3.1518211,1.8308411,6.7415676,2.9831085,10.5723667,3.2596512c0.0778599,0.0060654,0.1558533,0.0125275,0.2337132,0.0177841  c0.4639912,0.0290985,0.9307423,0.047348,1.4011993,0.0503769c0.0373802,0.000206,0.0749626,0.0040436,0.1123428,0.0040436  c0.005928,0,0.0118542-0.0007401,0.0177822-0.0007401c0.0097656,0,0.0193291,0.0007401,0.0290947,0.0007401  c0.1911469,0,0.3779812-0.0210114,0.5682526-0.0254593c0.4621048-0.0121231,0.9242096-0.0228348,1.3849659-0.0620956  c4.6087227-0.3694992,8.9047928-2.0359268,12.5014763-4.6444168c0.1264877-0.0877609,0.2571487-0.1642075,0.3827629-0.2542572  c2.9915237-2.1455765,5.1710434-3.6909103,7.3710403-5.2513275l3.4215012-2.4290009  c1.625618-1.1570435,3.087162-2.543087,4.3748741-4.1057281l13.7035789,7.5886536  c0.0113831,0.0062637,0.0249176,0.0041809,0.0365067,0.009903c0.089241,0.0445862,0.1868362,0.0690384,0.2908249,0.0786667  c0.0228348,0.0020905,0.0436478,0.0132675,0.0665436,0.0134735c0.0024948,0,0.0045166,0.0014114,0.0070038,0.0014114  c0.1258163,0,0.2419968-0.0327988,0.3488159-0.0831146c0.0073471-0.0034332,0.0157623-0.0015488,0.0229721-0.005249  l20.3598099-10.225708C94.8232651,59.6222534,95,59.3356018,95,59.0230865V47.6944199  C95,47.6869431,94.9944763,47.6809502,94.994278,47.6734734z M27.0597858,27.1745777  c4.2658291-3.059412,9.0790958-4.6764088,13.9198475-4.6764088c4.0104294,0,8.1054535,1.1676216,12.1703033,3.4705334  c8.8303642,5.002058,33.1746712,18.3653736,39.2419777,21.6934566l-18.646431,9.3656807L38.0441475,37.2574959  c-0.0004044-0.0002022-0.0007401-0.0001335-0.0011444-0.0003357l-1.1099014-0.6354713  c-3.6111641-2.0749893-8.1054516-4.6580887-12.4930534-4.6580887c-1.7694149,0-3.4318733,0.2303467-5.0151253,0.6500854  l0.2848339-0.2023277C21.9022102,30.856329,24.077961,29.3131504,27.0597858,27.1745777z M6.6552515,54.4539032  c0-4.6543846,1.4408016-10.5708199,5.1908464-15.3611908c3.5216532-3.6828918,7.6414623-5.4738579,12.5939503-5.4738579  c3.9457703,0,8.2277641,2.4607849,11.6681213,4.4382515l1.1272087,0.6444244  c0.0010109,0.0005417,0.0021553,0.000473,0.0031662,0.0010109c0.0015488,0.0008774,0.0022926,0.0024261,0.0038414,0.0032997  l35.7425537,19.7931786v9.3458824L53.7318611,57.1824799c-0.2392387-0.1314697-0.5258904-0.1368599-0.7683563-0.0172424  c-0.2435455,0.120697-0.412735,0.353466-0.4515305,0.6228752c-0.9033318,6.238781-4.3325768,11.618618-9.1459122,15.1770515  c-3.1394272,2.2082748-6.565979,3.6469955-10.0804253,4.2333603c-0.0218925,0.0034332-0.0441856,0.0057907-0.066143,0.0092316  c-0.5541077,0.0907898-1.1103706,0.1594238-1.6679115,0.2079163c-0.4755077,0.0386581-0.9553261,0.0578537-1.437233,0.0666122  c-0.144268,0.0030289-0.2879982,0.0177765-0.4322681,0.0179825c-0.6589069-0.0006104-1.3074436-0.0438461-1.9524765-0.0989456  c-0.2882004-0.0266037-0.5766716-0.0551605-0.8655453-0.0935516c-0.2087936-0.025795-0.4137459-0.0636444-0.6207867-0.0950317  c-2.6047859-0.4223022-5.2309227-1.3263702-7.8492451-2.6992111C11.396656,70.552803,6.6552515,63.0521736,6.6552515,54.4539032z   M54.3741302,65.1408386l-3.4198837,2.4279175c-0.2228012,0.1579361-0.4456673,0.3160172-0.6688728,0.4743576  c1.7547302-2.635498,3.0367126-5.616848,3.6663246-8.8465271l4.2833405,2.3720169  C57.0872192,62.9214401,55.7978249,64.1273193,54.3741302,65.1408386z M74.6401901,67.906929v-9.4754639l18.7045593-9.3948479  v9.4756699L74.6401901,67.906929z"/><polygon points="76.175415,65.6445007 91.810257,57.7914124 91.810257,51.2989845 76.175415,59.1520653 "/><polygon points="75.0307617,40.2975807 70.3445892,37.7645912 55.086586,44.4802284 59.8951416,47.0793571 "/></svg>